# xmcd CD database file
# Copyright (C) 1997 Ti Kan
#
# Track frame offsets:
#  182
#  12965
#  38820
#  55490
#  69477
#  84410
#  98530
#  116937
#  133225
#  154982
#  165280
#  193755
#  207607
#  225827
#  252757
#  268197
#
# Disc length: 3886 seconds
#
# Revision: 1
# Processed by: cddbd v1.4b41PL1 Copyright (c) Steve Scherf et al.
# Submitted via: CDWizzard Release:4.31
#
DISCID=db0f2c10
DTITLE=Muddy Waters - Rollin' Stone - Volume 3
DYEAR=1900
DGENRE=
TTITLE0=All Aboard
TTITLE1=Mean Disposition
TTITLE2=Blow Wind Blow
TTITLE3=Can't Loose What You Never Had
TTITLE4=Walkin' Thru The Park
TTITLE5=Forty Days And Forty Nights
TTITLE6=Standin' Round Cryin'
TTITLE7=I'm Ready
TTITLE8=Twenty Four Hours
TTITLE9=Sugar Sweet
TTITLE10=Long Distance Call
TTITLE11=Baby, Please Don't Go
TTITLE12=Honey Bee
TTITLE13=The Same Thing
TTITLE14=Got My Mojo Working I
TTITLE15=Got My Mojo Working II
EXTD=
EXTT0=
EXTT1=
EXTT2=
EXTT3=
EXTT4=
EXTT5=
EXTT6=
EXTT7=
EXTT8=
EXTT9=
EXTT10=
EXTT11=
EXTT12=
EXTT13=
EXTT14=
EXTT15=
PLAYORDER=
